<?xml version="1.0" standalone="no"?>
<!DOCTYPE svg PUBLIC "-//W3C//DTD SVG 20010904//EN"
 "http://www.w3.org/TR/2001/REC-SVG-20010904/DTD/svg10.dtd">
<svg version="1.0" xmlns="http://www.w3.org/2000/svg"
 width="539.000000pt" height="539.000000pt" viewBox="0 0 539.000000 539.000000"
 preserveAspectRatio="xMidYMid meet">
<metadata>
Created by potrace 1.14, written by Peter Selinger 2001-2017
</metadata>
<g transform="translate(0.000000,539.000000) scale(0.100000,-0.100000)"
fill="#000000" stroke="none">
<path d="M2625 4791 c-16 -10 -111 -98 -210 -196 -325 -320 -485 -474 -530
-510 -42 -35 -45 -36 -72 -22 -24 13 -123 96 -171 144 -7 7 -20 13 -27 13 -20
0 -1119 -1083 -1167 -1150 -28 -38 -54 -111 -63 -177 -6 -47 -11 -44 107 -58
52 -6 47 -12 69 85 11 48 22 65 108 154 315 328 654 656 667 643 2 -2 -3 -24
-11 -48 -9 -24 -25 -84 -36 -134 -10 -49 -22 -99 -25 -110 -5 -20 -5 -20 10 0
8 11 19 25 23 30 12 14 47 68 53 80 3 6 36 57 74 115 38 58 96 158 128 223 32
64 61 117 64 117 7 0 105 -106 123 -134 23 -33 33 -36 65 -19 26 13 148 104
166 123 14 15 222 195 252 218 19 15 7 -30 -60 -223 -33 -98 -132 -427 -132
-441 0 -5 8 3 17 16 19 29 105 131 146 175 16 17 99 115 185 218 85 104 162
191 169 194 9 3 34 -16 64 -50 66 -74 164 -168 199 -190 l27 -17 -34 101 c-32
92 -39 126 -42 199 -1 17 -23 46 -71 91 l-69 66 20 69 c12 38 24 76 26 84 6
16 8 33 11 88 2 28 5 31 20 23 9 -5 118 -109 241 -231 253 -249 339 -330 354
-330 5 0 33 23 61 51 l51 51 -60 55 c-33 31 -168 162 -301 292 -387 380 -360
359 -419 322z"/>
<path d="M3511 4032 c-244 -247 -351 -368 -450 -511 l-24 -33 44 27 c98 61
246 161 273 185 28 23 88 75 143 124 13 11 25 17 29 14 3 -3 -6 -44 -20 -90
-14 -46 -26 -87 -26 -91 0 -4 19 3 41 15 26 13 60 21 90 21 27 0 49 3 50 6 20
174 21 181 45 253 16 50 32 68 43 50 16 -27 269 -290 377 -393 211 -201 636
-642 649 -673 8 -19 15 -54 15 -76 0 -26 5 -43 14 -46 15 -6 153 34 161 46 7
12 -37 144 -58 175 -31 44 -85 100 -607 623 -498 500 -563 562 -588 562 -9 0
-99 -85 -201 -188z"/>
<path d="M1649 3357 c-34 -26 -37 -50 -34 -287 2 -129 4 -459 4 -733 l1 -497
30 -18 c33 -20 82 -18 101 4 7 8 10 61 10 146 -2 223 -3 676 -1 1010 1 266 -1
321 -14 346 -22 42 -64 55 -97 29z"/>
<path d="M3609 3351 l-23 -18 -1 -739 c-1 -407 2 -746 6 -755 5 -9 22 -22 39
-28 39 -13 77 0 89 32 5 12 9 350 10 750 l1 728 -24 24 c-30 30 -65 32 -97 6z"/>
<path d="M2642 3343 c-18 -9 -37 -23 -41 -32 -5 -9 -8 -418 -7 -909 l1 -894
24 -19 c33 -27 75 -24 100 7 20 26 20 33 17 912 -2 488 -4 892 -5 899 0 6 -14
21 -29 32 -26 18 -30 19 -60 4z"/>
<path d="M3386 2943 c-14 -14 -26 -35 -27 -47 -4 -84 -14 -200 -24 -286 -7
-54 -19 -176 -24 -239 -1 -11 -4 -11 -16 -1 -8 6 -14 15 -13 18 1 4 -2 14 -5
22 -3 8 -13 38 -22 65 -9 28 -27 82 -41 120 -77 212 -92 232 -164 222 -62 -8
-73 -26 -122 -201 -43 -156 -46 -172 -53 -256 -3 -41 -10 -104 -15 -140 -5
-36 -10 -106 -10 -157 0 -90 0 -92 31 -117 38 -32 79 -33 107 -3 26 28 30 48
37 221 10 229 13 279 26 350 13 78 28 77 48 -6 18 -71 96 -299 116 -338 15
-29 61 -56 93 -53 6 0 18 1 26 2 7 0 25 13 39 27 28 28 43 81 77 274 24 137
40 276 45 375 6 122 -2 145 -54 163 -26 9 -33 7 -55 -15z"/>
<path d="M1395 2927 c-17 -15 -28 -35 -30 -57 -2 -19 -4 -35 -5 -35 -1 0 -3
-11 -6 -24 -7 -38 -66 -142 -89 -157 -42 -27 -79 -28 -720 -19 -116 1 -247 4
-291 5 -123 3 -173 -33 -139 -100 30 -57 7 -55 539 -55 663 0 618 -3 670 51
24 24 45 44 48 44 2 0 6 -75 7 -167 1 -91 7 -175 12 -185 15 -28 56 -41 82
-26 45 24 47 32 46 268 0 124 0 265 0 313 1 92 -7 120 -43 149 -29 24 -50 22
-81 -5z"/>
<path d="M2371 2924 c-18 -23 -21 -41 -21 -123 -2 -429 -4 -450 -31 -400 -49
89 -94 196 -124 293 -42 133 -57 151 -118 147 -24 -1 -64 -46 -86 -96 -10 -23
-37 -59 -59 -79 -22 -21 -45 -51 -51 -67 -17 -48 -12 -416 6 -460 21 -53 73
-65 118 -26 29 24 33 57 38 339 3 131 16 177 35 127 36 -91 48 -112 74 -125
15 -8 35 -31 43 -50 14 -34 44 -173 44 -204 -1 -144 146 -216 196 -95 8 18 16
75 19 128 6 121 16 235 22 265 15 72 23 359 11 395 -19 58 -82 74 -116 31z"/>
<path d="M3920 2912 c-62 -30 -73 -91 -86 -490 -6 -192 -6 -193 17 -218 30
-32 88 -33 115 -3 18 20 19 37 17 241 -2 235 3 254 40 150 26 -71 56 -96 125
-102 31 -3 203 -4 380 -2 l324 3 -6 65 c-3 37 -8 69 -10 73 -3 4 -49 6 -103 5
-131 -3 -544 -7 -565 -5 -18 1 -41 45 -94 174 -43 107 -90 140 -154 109z"/>
<path d="M5028 2699 c-72 -37 -91 -99 -57 -180 37 -85 127 -115 200 -66 94 63
88 199 -12 249 -44 23 -85 22 -131 -3z"/>
<path d="M838 2313 c-20 -3 -28 -10 -28 -25 0 -61 7 -68 931 -998 131 -132
410 -400 484 -465 51 -45 203 -112 303 -133 212 -46 420 2 577 131 69 57 173
158 558 543 792 791 855 857 862 896 4 20 4 41 1 46 -6 10 -109 9 -142 -2 -11
-3 -128 -117 -260 -253 -131 -135 -435 -443 -674 -683 -385 -387 -442 -441
-499 -469 -35 -17 -72 -31 -82 -31 -10 0 -20 -4 -23 -9 -6 -9 -54 -21 -116
-28 -114 -14 -270 20 -372 80 -41 24 -380 356 -668 653 -74 76 -269 275 -434
442 -299 302 -300 303 -345 306 -25 2 -58 1 -73 -1z"/>
</g>
</svg>
